<svg xmlns="http://www.w3.org/2000/svg" width="363" height="339.78" viewBox="0 0 363 339.78">
  <g id="Grupo_9995" data-name="Grupo 9995" transform="translate(-5.844 -34.121)">
    <g id="Floor" transform="translate(5.844 157.965)">
      <ellipse id="Floor-2" data-name="Floor" cx="181.5" cy="107.968" rx="181.5" ry="107.968" fill="#0d54a1"/>
    </g>
    <g id="Plants" transform="translate(30.766 220.94)">
      <g id="Plants-2" data-name="Plants" transform="translate(263.487)">
        <g id="Grupo_9915" data-name="Grupo 9915" transform="translate(6.086)">
          <path id="Trazado_1292" data-name="Trazado 1292" d="M402.225,333.109s-1.215-13.588,2.046-24.692,9.781-19.346,17.272-22.2,15.742,2.412,8.95,9.667-19.928,16.475-21.354,36.6Z" transform="translate(-402.003 -285.433)" fill="#ba68c8"/>
          <path id="Trazado_1293" data-name="Trazado 1293" d="M402.225,333.109s-1.215-13.588,2.046-24.692,9.781-19.346,17.272-22.2,15.742,2.412,8.95,9.667-19.928,16.475-21.354,36.6Z" transform="translate(-402.003 -285.433)" fill="#b3e5fc"/>
          <g id="Grupo_9914" data-name="Grupo 9914" transform="translate(2.502 4.825)">
            <path id="Trazado_1294" data-name="Trazado 1294" d="M405.88,333.177a.432.432,0,0,1-.088.008.427.427,0,0,1-.424-.43c.151-22.46,11.852-36.48,18.019-40.756a.427.427,0,0,1,.485.7c-6.041,4.188-17.5,17.951-17.651,40.058A.428.428,0,0,1,405.88,333.177Z" transform="translate(-405.369 -291.923)" fill="#fff"/>
          </g>
        </g>
        <g id="Grupo_9918" data-name="Grupo 9918" transform="translate(0 22.352)">
          <path id="Trazado_1295" data-name="Trazado 1295" d="M399.75,362.218a21.532,21.532,0,0,1-3.716-3.944c-2.829-4.063-2.759-10.015-.877-14.453a11.931,11.931,0,0,1,2.12-3.177,7.247,7.247,0,0,1,1.049-.825,25.906,25.906,0,0,1,2.4-1.171c1.56-.824,3.3-1.83,4.126-3.452,1.451-2.84,1.148-6.193,2.374-9.131a8.21,8.21,0,0,1,7.015-5.266c1.56-.169,3.111.4,4.633.623,3.211.475,6.238-2.256,8.862-3.714,2.813-1.563,6.105-2.78,9.207-1.922a7.455,7.455,0,0,1,4.95,9.911c-.661,1.681-1.9,3.06-2.8,4.628a5.6,5.6,0,0,0-.634,5.029c.543,1.244,1.492,2.183,1.945,3.474,1.165,3.323.6,6.336-2.7,8.107-2.443,1.311-5.285,1-7.732,2.162a4.853,4.853,0,0,0-3.077,4.57c.09,1.056.407,2.081.527,3.133.789,6.9-3.693,11.372-9.567,12.338a18.157,18.157,0,0,1-9.089-1.162c-2.006-.932-4.5-1.9-6.176-3.356C401.642,363.8,400.68,363.022,399.75,362.218Z" transform="translate(-393.816 -315.5)" fill="#ba68c8"/>
          <path id="Trazado_1296" data-name="Trazado 1296" d="M399.75,362.218a21.532,21.532,0,0,1-3.716-3.944c-2.829-4.063-2.759-10.015-.877-14.453a11.931,11.931,0,0,1,2.12-3.177,7.247,7.247,0,0,1,1.049-.825,25.906,25.906,0,0,1,2.4-1.171c1.56-.824,3.3-1.83,4.126-3.452,1.451-2.84,1.148-6.193,2.374-9.131a8.21,8.21,0,0,1,7.015-5.266c1.56-.169,3.111.4,4.633.623,3.211.475,6.238-2.256,8.862-3.714,2.813-1.563,6.105-2.78,9.207-1.922a7.455,7.455,0,0,1,4.95,9.911c-.661,1.681-1.9,3.06-2.8,4.628a5.6,5.6,0,0,0-.634,5.029c.543,1.244,1.492,2.183,1.945,3.474,1.165,3.323.6,6.336-2.7,8.107-2.443,1.311-5.285,1-7.732,2.162a4.853,4.853,0,0,0-3.077,4.57c.09,1.056.407,2.081.527,3.133.789,6.9-3.693,11.372-9.567,12.338a18.157,18.157,0,0,1-9.089-1.162c-2.006-.932-4.5-1.9-6.176-3.356C401.642,363.8,400.68,363.022,399.75,362.218Z" transform="translate(-393.816 -315.5)" fill="#03a9f4"/>
          <g id="Grupo_9916" data-name="Grupo 9916" transform="translate(18.618 22.011)">
            <path id="Trazado_1297" data-name="Trazado 1297" d="M437.794,347.222a.4.4,0,0,1-.239-.03,21.311,21.311,0,0,0-18.1,1.636.4.4,0,0,1-.393-.7,22.133,22.133,0,0,1,18.821-1.667.4.4,0,0,1-.093.763Z" transform="translate(-418.861 -345.109)" fill="#fff"/>
          </g>
          <g id="Grupo_9917" data-name="Grupo 9917" transform="translate(11.535 4.76)">
            <path id="Trazado_1298" data-name="Trazado 1298" d="M409.708,363.032a.375.375,0,0,0,.377-.367c.387-16.855,16.976-34.974,28.226-40.043a.376.376,0,1,0-.309-.685c-11.426,5.149-28.275,23.567-28.669,40.71a.376.376,0,0,0,.367.385Z" transform="translate(-409.333 -321.904)" fill="#fff"/>
          </g>
        </g>
      </g>
      <g id="Plants-3" data-name="Plants">
        <g id="Grupo_9920" data-name="Grupo 9920" transform="translate(11.485)">
          <path id="Trazado_1299" data-name="Trazado 1299" d="M85.613,333.109s1.215-13.588-2.046-24.692-9.781-19.346-17.272-22.2-15.742,2.412-8.95,9.667,19.928,16.475,21.354,36.6Z" transform="translate(-54.82 -285.433)" fill="#ba68c8"/>
          <path id="Trazado_1300" data-name="Trazado 1300" d="M85.613,333.109s1.215-13.588-2.046-24.692-9.781-19.346-17.272-22.2-15.742,2.412-8.95,9.667,19.928,16.475,21.354,36.6Z" transform="translate(-54.82 -285.433)" fill="#b3e5fc"/>
          <g id="Grupo_9919" data-name="Grupo 9919" transform="translate(9.823 4.825)">
            <path id="Trazado_1301" data-name="Trazado 1301" d="M86.212,333.177a.433.433,0,0,0,.088.008.426.426,0,0,0,.424-.43C86.572,310.3,74.871,296.275,68.7,292a.427.427,0,0,0-.485.7c6.041,4.188,17.5,17.951,17.652,40.058A.427.427,0,0,0,86.212,333.177Z" transform="translate(-68.034 -291.923)" fill="#fff"/>
          </g>
        </g>
        <g id="Grupo_9923" data-name="Grupo 9923" transform="translate(0 22.352)">
          <path id="Trazado_1302" data-name="Trazado 1302" d="M82.021,362.218a21.532,21.532,0,0,0,3.716-3.944c2.829-4.063,2.759-10.015.877-14.453a11.9,11.9,0,0,0-2.12-3.177,7.247,7.247,0,0,0-1.049-.825,25.988,25.988,0,0,0-2.4-1.171c-1.56-.824-3.3-1.83-4.127-3.452-1.451-2.84-1.148-6.193-2.374-9.131a8.21,8.21,0,0,0-7.015-5.266c-1.56-.169-3.11.4-4.633.623-3.211.475-6.238-2.256-8.862-3.714-2.813-1.563-6.105-2.78-9.207-1.922a7.455,7.455,0,0,0-4.95,9.911c.662,1.681,1.9,3.06,2.8,4.628a5.6,5.6,0,0,1,.634,5.029c-.542,1.244-1.492,2.183-1.945,3.474-1.165,3.323-.6,6.336,2.7,8.107,2.443,1.311,5.285,1,7.732,2.162a4.854,4.854,0,0,1,3.078,4.57c-.09,1.056-.407,2.081-.528,3.133-.789,6.9,3.693,11.372,9.567,12.338a18.156,18.156,0,0,0,9.089-1.162c2.006-.932,4.5-1.9,6.176-3.356C80.129,363.8,81.092,363.022,82.021,362.218Z" transform="translate(-39.37 -315.5)" fill="#ba68c8"/>
          <path id="Trazado_1303" data-name="Trazado 1303" d="M82.021,362.218a21.532,21.532,0,0,0,3.716-3.944c2.829-4.063,2.759-10.015.877-14.453a11.9,11.9,0,0,0-2.12-3.177,7.247,7.247,0,0,0-1.049-.825,25.988,25.988,0,0,0-2.4-1.171c-1.56-.824-3.3-1.83-4.127-3.452-1.451-2.84-1.148-6.193-2.374-9.131a8.21,8.21,0,0,0-7.015-5.266c-1.56-.169-3.11.4-4.633.623-3.211.475-6.238-2.256-8.862-3.714-2.813-1.563-6.105-2.78-9.207-1.922a7.455,7.455,0,0,0-4.95,9.911c.662,1.681,1.9,3.06,2.8,4.628a5.6,5.6,0,0,1,.634,5.029c-.542,1.244-1.492,2.183-1.945,3.474-1.165,3.323-.6,6.336,2.7,8.107,2.443,1.311,5.285,1,7.732,2.162a4.854,4.854,0,0,1,3.078,4.57c-.09,1.056-.407,2.081-.528,3.133-.789,6.9,3.693,11.372,9.567,12.338a18.156,18.156,0,0,0,9.089-1.162c2.006-.932,4.5-1.9,6.176-3.356C80.129,363.8,81.092,363.022,82.021,362.218Z" transform="translate(-39.37 -315.5)" fill="#03a9f4"/>
          <g id="Grupo_9921" data-name="Grupo 9921" transform="translate(10.707 22.011)">
            <path id="Trazado_1304" data-name="Trazado 1304" d="M54.1,347.222a.4.4,0,0,0,.238-.03,21.311,21.311,0,0,1,18.1,1.636.4.4,0,0,0,.393-.7,22.133,22.133,0,0,0-18.821-1.667.4.4,0,0,0,.094.763Z" transform="translate(-53.772 -345.109)" fill="#fff"/>
          </g>
          <g id="Grupo_9922" data-name="Grupo 9922" transform="translate(7.851 4.76)">
            <path id="Trazado_1305" data-name="Trazado 1305" d="M78.757,363.032a.376.376,0,0,1-.378-.367c-.387-16.855-16.976-34.974-28.226-40.043a.376.376,0,1,1,.308-.685c11.426,5.149,28.275,23.567,28.669,40.71a.376.376,0,0,1-.367.385Z" transform="translate(-49.932 -321.904)" fill="#fff"/>
          </g>
        </g>
      </g>
    </g>
    <g id="Shadows" transform="translate(45.772 280.622)">
      <ellipse id="Shadow" cx="59.871" cy="34.567" rx="59.871" ry="34.567" fill="#3f51b5"/>
      <ellipse id="Shadow-2" data-name="Shadow" cx="59.871" cy="34.567" rx="59.871" ry="34.567" transform="translate(163.402)" fill="#3f51b5"/>
    </g>
    <g id="Icons" transform="translate(16.918 133.895)">
      <g id="Symbol" transform="translate(0 3.819)">
        <g id="Grupo_9930" data-name="Grupo 9930" transform="translate(0 7.143)">
          <g id="Grupo_9925" data-name="Grupo 9925" transform="translate(0 0.034)">
            <g id="Grupo_9924" data-name="Grupo 9924">
              <rect id="Rectángulo_2625" data-name="Rectángulo 2625" width="10.384" height="15.471" rx="1.392" transform="matrix(0.971, -0.238, 0.238, 0.971, 0, 17.077)" fill="#ffd54f"/>
              <path id="Trazado_1306" data-name="Trazado 1306" d="M52.96,219.969l-17.9-6.673-3.68-15.026L44.17,184.082a2.874,2.874,0,0,1,4.926,1.24l7.659,31.27A2.874,2.874,0,0,1,52.96,219.969Z" transform="translate(-23.472 -183.13)" fill="#ffd54f"/>
            </g>
          </g>
          <g id="Grupo_9927" data-name="Grupo 9927" transform="translate(31.059 6.409)">
            <g id="Grupo_9926" data-name="Grupo 9926">
              <path id="Trazado_1307" data-name="Trazado 1307" d="M73.02,200.192a11.528,11.528,0,0,0-8.347-8.432,1.727,1.727,0,0,0-2,.967l0,.008a1.7,1.7,0,0,0,1.114,2.348,8.092,8.092,0,0,1,3.406,13.906,1.7,1.7,0,0,0,.1,2.6l.007.006a1.726,1.726,0,0,0,2.211-.068A11.527,11.527,0,0,0,73.02,200.192Z" transform="translate(-62.521 -191.707)" fill="#ffd54f"/>
            </g>
          </g>
          <g id="Grupo_9929" data-name="Grupo 9929" transform="translate(33.985)">
            <g id="Grupo_9928" data-name="Grupo 9928">
              <path id="Trazado_1308" data-name="Trazado 1308" d="M80.833,196.313a18.539,18.539,0,0,0-12.051-13.13,1.74,1.74,0,0,0-2.163.9l-.007.015a1.709,1.709,0,0,0,1.03,2.33,15.074,15.074,0,0,1,6.063,24.763,1.709,1.709,0,0,0,.163,2.541h0a1.739,1.739,0,0,0,2.331-.2A18.51,18.51,0,0,0,80.833,196.313Z" transform="translate(-66.458 -183.085)" fill="#ffd54f"/>
            </g>
          </g>
        </g>
        <path id="Trazado_1309" data-name="Trazado 1309" d="M36.412,221.225h0a1.66,1.66,0,0,1-.559-2.281l27.063-44.669a1.661,1.661,0,0,1,2.281-.558h0A1.661,1.661,0,0,1,65.755,176L38.693,220.666A1.66,1.66,0,0,1,36.412,221.225Z" transform="translate(-24.557 -173.476)" fill="#b3e5fc"/>
      </g>
      <g id="Symbol-2" data-name="Symbol" transform="translate(295.888)">
        <g id="Grupo_9931" data-name="Grupo 9931" transform="translate(7.161)">
          <path id="Trazado_1310" data-name="Trazado 1310" d="M463.639,181.393c-2.2-7.148-8.24-11.557-15.389-12.786a16.127,16.127,0,0,0-11.276,1.957c-3.018,1.9-6.086,5.437-5.806,9.227.036.484,1.319,1.06,1.531.421a12.962,12.962,0,0,1,1.258-3.428,14.991,14.991,0,0,1,3.237-3.562c2.49-1.952,5.9-2.536,9.046-2.419,6.27.231,11.589,2.994,14.355,8.76a16.56,16.56,0,0,1-2.149,17.1,31.889,31.889,0,0,1-6.678,6.087c-2.767,2.1-4.814,3.515-6.557,6.09a32.842,32.842,0,0,1-2.653,3.805,5.376,5.376,0,0,1-4.407,1.659,10.308,10.308,0,0,1-5.272-2.006,6.956,6.956,0,0,1-2.821-5.56c-.068-1.3-1.566-1.024-1.627.471a6.436,6.436,0,0,0,1.012,4.388,9.938,9.938,0,0,0,3.975,3.663c3.021,1.409,7.3,1.922,10.026-.281,2.6-2.1,3.626-5.5,6.22-7.64,2.828-2.328,5.325-4.029,8.052-6.5C463.05,196.009,465.8,188.418,463.639,181.393Z" transform="translate(-428.407 -168.339)" fill="#ffd54f"/>
          <path id="Trazado_1311" data-name="Trazado 1311" d="M458.023,183.975c.345-.468.047-1.372-.121-1.846a4.315,4.315,0,0,0-.626-1.137c-1.96-2.609-5.7-3.675-8.837-3.388-4.255.39-9.556,3.794-9.186,8.625a4.975,4.975,0,0,0,3.954,4.5c2.084.343,3.75-.949,5.651-1.5,2.839-.826,3.963,2.188,4,4.492a11.218,11.218,0,0,1-.429,3.993c-.427,1.126-1.417,1.447-2.492,1.7a10.253,10.253,0,0,0-2.976.947c-1.172.7-1.525,1.8-2.15,2.937a4.924,4.924,0,0,1-1.739,1.823,2.487,2.487,0,0,1-2.155.074,3.332,3.332,0,0,1-1.618-1.486c-.213-.344-.332-.866-.665-1.115-.685-.51-1.15.155-1.287.769a2.887,2.887,0,0,0,.587,2.26,4.739,4.739,0,0,0,4.38,1.676,6.235,6.235,0,0,0,3.975-2.46c.67-.9.874-2.257,1.857-2.889a9.045,9.045,0,0,1,2.725-.816,5.992,5.992,0,0,0,2.371-1.062A5.025,5.025,0,0,0,454.8,196.5c.235-2.377.359-5-1.073-7.051a4.983,4.983,0,0,0-5.812-1.92c-1.685.549-4.007,2.334-5.6.723-2.064-2.088-.358-5.2,1.5-6.716a9.3,9.3,0,0,1,7.343-1.908,8.761,8.761,0,0,1,3.286,1.327,6.7,6.7,0,0,1,2.053,2.339c.308.494.76,1.426,1.449.758A.7.7,0,0,0,458.023,183.975Z" transform="translate(-430.69 -170.705)" fill="#ffd54f"/>
        </g>
        <path id="Trazado_1312" data-name="Trazado 1312" d="M418.917,204.842h0a1.886,1.886,0,0,1,1.025-2.463l44.923-18.5a1.886,1.886,0,0,1,2.464,1.025h0a1.887,1.887,0,0,1-1.026,2.463l-44.923,18.5A1.886,1.886,0,0,1,418.917,204.842Z" transform="translate(-418.774 -172.291)" fill="#b3e5fc"/>
      </g>
    </g>
    <g id="Speech_bubbles" data-name="Speech bubbles" transform="translate(14.918 34.121)">
      <g id="Speech_Bubble" data-name="Speech Bubble" transform="translate(291.378 11.46)">
        <path id="Speech_Bubble-2" data-name="Speech Bubble" d="M414.229,87a15.544,15.544,0,0,0,11.48-7.372,75.789,75.789,0,0,0,17.6.772c15.714-.93,24.57-7.77,22.23-17.087-2.762-11-12.805-14.407-31.533-13.677-23.432.915-31.855,15.787-15.517,27.726C419.362,81.078,417.017,84.086,414.229,87Z" transform="translate(-410.016 -49.537)" fill="#ba68c8"/>
        <path id="Speech_Bubble-3" data-name="Speech Bubble" d="M414.229,87a15.544,15.544,0,0,0,11.48-7.372,75.789,75.789,0,0,0,17.6.772c15.714-.93,24.57-7.77,22.23-17.087-2.762-11-12.805-14.407-31.533-13.677-23.432.915-31.855,15.787-15.517,27.726C419.362,81.078,417.017,84.086,414.229,87Z" transform="translate(-410.016 -49.537)" fill="#03a9f4"/>
      </g>
      <g id="Speech_Bubble-4" data-name="Speech Bubble">
        <path id="Speech_Bubble-5" data-name="Speech Bubble" d="M70.326,74.716c-2.846-1.3-4.266-3.95-4.528-7.649,0,0,13.587-2.233,11.192-18.258C75.719,40.3,69.255,31.532,43.9,34.833c-30.617,3.986-26.967,19.4-23.8,24.8,3.3,5.631,16.287,10.136,38.358,8.909C60.479,72.7,66.115,75.289,70.326,74.716Z" transform="translate(-18.051 -34.121)" fill="#ba68c8"/>
        <path id="Speech_Bubble-6" data-name="Speech Bubble" d="M70.326,74.716c-2.846-1.3-4.266-3.95-4.528-7.649,0,0,13.587-2.233,11.192-18.258C75.719,40.3,69.255,31.532,43.9,34.833c-30.617,3.986-26.967,19.4-23.8,24.8,3.3,5.631,16.287,10.136,38.358,8.909C60.479,72.7,66.115,75.289,70.326,74.716Z" transform="translate(-18.051 -34.121)" fill="#03a9f4"/>
      </g>
    </g>
    <g id="Character_2" data-name="Character 2" transform="translate(211.274 40.063)">
      <g id="Character">
        <g id="Bottom" transform="translate(15.424 94.38)">
          <g id="Grupo_9934" data-name="Grupo 9934" transform="translate(52.933 117.968)">
            <g id="Grupo_9932" data-name="Grupo 9932" transform="translate(8.652 38.204)">
              <path id="Trazado_1313" data-name="Trazado 1313" d="M398.168,379.16c.386,2.049,1.1,4.422,1.713,8.621.6,4.118-.3,4.371,2.484,14.881,1.671,6.309,1.38,8.821-2.463,14.153-4.113,5.708-8.432,4.567-11.267-1.748-2.424-5.4-2.289-7.908-2.316-13.5s-.09-7.227-.36-11.664c-.238-3.91.08-6.586-.175-9.581Z" transform="translate(-385.785 -379.16)" fill="#37474f"/>
            </g>
            <g id="Grupo_9933" data-name="Grupo 9933">
              <path id="Trazado_1314" data-name="Trazado 1314" d="M396.507,381.3c-.791-5.421-.989-11.038-1.283-14.7-.658-8.21.957-24.444-.256-36.789l-20.822-2.043c.714,4.812,6.539,26.568,8.671,39.706,0,0,.88,17.835,2.052,25.685a1.507,1.507,0,0,0,2.116,1.161,13.7,13.7,0,0,1,9.422-.639,1.5,1.5,0,0,0,2.006-1.441C398.356,389.334,397.1,385.368,396.507,381.3Z" transform="translate(-374.146 -327.767)" fill="#ffbda7"/>
            </g>
          </g>
          <g id="Grupo_9939" data-name="Grupo 9939" transform="translate(0 117.604)">
            <g id="Grupo_9935" data-name="Grupo 9935" transform="translate(3.535)">
              <path id="Trazado_1315" data-name="Trazado 1315" d="M317.655,327.277c.485,17.091.674,32.223.17,36.669a35.361,35.361,0,0,1-1.786,9.081c-1.064,3.129-2.866,7.3-4.517,9.34,0,0-4.761,5.325-3.661,5.837s11.354,1.347,15.9-.143,4.941-5.385,6.333-12.515,2.487-17.521,2.487-17.521a4.637,4.637,0,0,1-.5-1.191c-.656-2.03,1.078-7.391,1.429-12.553Z" transform="translate(-307.695 -327.277)" fill="#ffbda7"/>
            </g>
            <g id="Grupo_9938" data-name="Grupo 9938" transform="translate(0 29.799)">
              <g id="Grupo_9936" data-name="Grupo 9936" transform="translate(27.628 11.429)">
                <path id="Trazado_1316" data-name="Trazado 1316" d="M345.7,382.74c-.262,1.662-1.641,3.57-2.216,6.164a46.016,46.016,0,0,0-1.121,9c-.115,3.7-.132,4.225-.132,4.225l-1.148-.036s.167-5.347.24-7.694-.1-4.068-1.218-4.355C340.105,390.041,340.15,382.567,345.7,382.74Z" transform="translate(-340.105 -382.737)" fill="#263238"/>
              </g>
              <g id="Grupo_9937" data-name="Grupo 9937">
                <path id="Trazado_1317" data-name="Trazado 1317" d="M331.152,367.363c.789,1.937,3.342,4.633,4.454,6.474a7.039,7.039,0,0,1,.952,3.19,3.355,3.355,0,0,1-.954,2.536,38.139,38.139,0,0,0-3.464,4.024c-1.354,1.91-3.876,6.357-4.531,9.47s-1.011,5.852-3.633,7.452c-2.044,1.247-10.514,3.121-14.813,3.5-5.867.513-7.455-2.278-5.311-4.587s5.788-6.262,6.45-6.763a10.7,10.7,0,0,1,5.482.634c3.323,1.338,4.418,3.226,7.834,1.419,3.092-1.635,4.2-7.452,3.739-15.771C326.83,369.493,331.152,367.363,331.152,367.363Z" transform="translate(-302.939 -367.363)" fill="#37474f"/>
              </g>
            </g>
          </g>
          <g id="Grupo_9946" data-name="Grupo 9946" transform="translate(11.683)">
            <g id="Grupo_9940" data-name="Grupo 9940">
              <path id="Trazado_1318" data-name="Trazado 1318" d="M364.018,169.075c.43,2.137.908,4.138,1.7,5.2,4.839,6.459,9.793,14.294,10.875,26.476a537.191,537.191,0,0,1,1.639,57.816c.265,2.6,2.383,8.857,3.012,23.682.5,11.815.149,30.2.149,30.2s-8.393,4.3-15.819,1.651c-3.162-11.221-8.606-38.236-11.762-51.083-3.327-13.541-6.774-29.7-6.774-29.7l-4.532,23.876a68.844,68.844,0,0,1,.17,15.363c-.752,7.911-6.513,35.875-6.513,35.875s-9.346,3.083-15.777-1.2c0,0-1.479-39.353-1.692-48.04s.253-60.337,5.181-83.15a49.531,49.531,0,0,0,.222-5.288C330.415,175.772,355.834,174.81,364.018,169.075Z" transform="translate(-318.655 -169.075)" fill="#4f5d64"/>
            </g>
            <g id="Grupo_9941" data-name="Grupo 9941" transform="translate(45.891 139.285)">
              <path id="Trazado_1319" data-name="Trazado 1319" d="M397.31,356.443c-3.161,3.014-13.011,3.976-16.921,1.989l1.316,6.12s2.585,1.677,8.185,1.069c5.645-.613,7.345-2.888,7.345-2.888Z" transform="translate(-380.389 -356.443)" fill="#455a64"/>
            </g>
            <g id="Grupo_9942" data-name="Grupo 9942" transform="translate(1.399 134.096)">
              <path id="Trazado_1320" data-name="Trazado 1320" d="M337.5,350.8c-3.317,1.183-13.272.839-16.967-1.337l.28,5.272s2.1,1.925,7.709,2.387c5.636.465,8.017-1.157,8.017-1.157Z" transform="translate(-320.537 -349.463)" fill="#455a64"/>
            </g>
            <g id="Grupo_9943" data-name="Grupo 9943" transform="translate(9.164 28.474)">
              <path id="Trazado_1321" data-name="Trazado 1321" d="M350.2,243.146l-4.351-29.027a18.41,18.41,0,0,1-14.868-6.739s-.071,7.285,11.972,10.345l5.019,26.736-2.3,22.562Z" transform="translate(-330.983 -207.379)" fill="#263238"/>
            </g>
            <g id="Grupo_9945" data-name="Grupo 9945" transform="translate(5.284)">
              <g id="Grupo_9944" data-name="Grupo 9944">
                <path id="Trazado_1322" data-name="Trazado 1322" d="M325.763,175.615s6.132,4.44,20.338,3.511,20.994-5.581,20.9-5.826v0a19.851,19.851,0,0,1-1.043-3.683c-.05-.214-.089-.4-.111-.537-8.184,5.735-33.6,6.7-39.92,1.676,0,0,.006,3.4-.159,4.864Z" transform="translate(-325.763 -169.075)" fill="#263238"/>
              </g>
            </g>
          </g>
        </g>
        <g id="Top">
          <g id="Hair" transform="translate(65.111 0.444)">
            <path id="Trazado_1323" data-name="Trazado 1323" d="M386.686,73.1c1.663-3.215,2.986-7.472-.016-10.347,1.31-3.544,2.226-8.131-1.4-10.543.084-4.664-2.357-7.634-5.9-8.879-3.35-1.177-7.007-.807-9.588,2.206l2.487,1.171c.369,3.172,1.467,6.257,4.4,7.864-1.179,3.676-.519,6.737,3.194,8.43-2.048,3.666-2.247,7.814.519,11.193a7.609,7.609,0,0,0,1.3,8.26c-2.153,2.576-.882,6.206,1.537,8.178a6.411,6.411,0,0,0-1.867,5.143,4.356,4.356,0,0,0,4.056,4.207c-1.151-.916-1.264-1.545-.668-3.3s1.644-3.836.017-5.769c1.617-2.769,3.171-5.919,1.237-8.863C387.4,79.165,388.489,76.056,386.686,73.1Z" transform="translate(-369.779 -42.712)" fill="#263238"/>
            <path id="Trazado_1324" data-name="Trazado 1324" d="M371.793,47.227c.883-1.512,2.833-.907,4.473.455s3.114,3.695,2.217,4.968C376.976,54.79,370.942,48.7,371.793,47.227Z" transform="translate(-370.275 -43.643)" fill="#ffd54f"/>
          </g>
          <g id="Chest" transform="translate(0.106 42.283)">
            <path id="Trazado_1325" data-name="Trazado 1325" d="M323.075,107.784c-6.222.449-11.144,2.2-16.737,7.611-8.155,7.883-24.726,23.8-23.981,31.407l14.442-.587,23.452-14.178Z" transform="translate(-282.333 -101.249)" fill="#ffbd4f"/>
            <g id="Grupo_9948" data-name="Grupo 9948" transform="translate(30.574 2.681)">
              <g id="Grupo_9947" data-name="Grupo 9947">
                <path id="Trazado_1326" data-name="Trazado 1326" d="M353.466,102.6l12.829,3.987c2.2.756,10.525,5.833,7.617,18.361-.961,4.144-2.272,9.961-3.455,15.77-.905,4.441,2.416,12.99,5.1,26.6,0,0-11,8.75-32.868,6.281-16.681-1.884-18.49-8.128-18.49-8.128.465-15.529,1.837-21.528,1.809-27.43a14.169,14.169,0,0,1-2.541-8.253c-.109-5.534,1.345-8.512,6.309-14.789a106.242,106.242,0,0,1,9.086-10.115Z" transform="translate(-323.461 -102.6)" fill="#b3e5fc"/>
              </g>
            </g>
            <g id="Grupo_9951" data-name="Grupo 9951" transform="translate(27.402 1.149)">
              <g id="Grupo_9949" data-name="Grupo 9949" transform="translate(0 3.818)">
                <path id="Trazado_1327" data-name="Trazado 1327" d="M328.65,122.7c-3.863,8.79-1.254,58.92-1.6,55.162,0,0-7.184-2.783-7.855-5.181,0-9.028,1.664-27.161,1.768-33.363.119-7.13-.413-11.86,1.4-16.46,1.331-3.37,6.81-11.777,10.169-15.615,1.721-.65,3.291-.873,5.233-1.567C334.213,108.766,330.111,117.435,328.65,122.7Z" transform="translate(-319.195 -105.676)" fill="#ba68c8"/>
                <path id="Trazado_1328" data-name="Trazado 1328" d="M328.65,122.7c-3.863,8.79-1.254,58.92-1.6,55.162,0,0-7.184-2.783-7.855-5.181,0-9.028,1.664-27.161,1.768-33.363.119-7.13-.413-11.86,1.4-16.46,1.331-3.37,6.81-11.777,10.169-15.615,1.721-.65,3.291-.873,5.233-1.567C334.213,108.766,330.111,117.435,328.65,122.7Z" transform="translate(-319.195 -105.676)" fill="#ffd54f"/>
              </g>
              <g id="Grupo_9950" data-name="Grupo 9950" transform="translate(8.044)">
                <path id="Trazado_1329" data-name="Trazado 1329" d="M345.473,104.858c-2.43,1.667-13.3,9.135-15.457,23.675,0-6.411,2.413-14.262,4.7-17.988,2.79-4.536,6.5-8.771,10.662-10.005Z" transform="translate(-330.016 -100.54)" fill="#ffbd4f"/>
              </g>
            </g>
            <g id="Grupo_9953" data-name="Grupo 9953" transform="translate(60.984 2.616)">
              <g id="Grupo_9952" data-name="Grupo 9952">
                <path id="Trazado_1330" data-name="Trazado 1330" d="M369.593,102.513s.051.857-.064,3.587-5.079,22.869-5.152,32.747a320.949,320.949,0,0,0,2.388,39.737s15.922,1.449,21.786-6.474c0,0-2.107-9.879-4.072-21.9-1.165-7.126,2.252-23.394,1.025-33.712-.513-4.31-.214-8.177-3.448-9.191-2.672-.838-6.925-1.96-6.925-1.96Z" transform="translate(-364.37 -102.513)" fill="#ba68c8"/>
                <path id="Trazado_1331" data-name="Trazado 1331" d="M369.593,102.513s.051.857-.064,3.587-5.079,22.869-5.152,32.747a320.949,320.949,0,0,0,2.388,39.737s15.922,1.449,21.786-6.474c0,0-2.107-9.879-4.072-21.9-1.165-7.126,2.252-23.394,1.025-33.712-.513-4.31-.214-8.177-3.448-9.191-2.672-.838-6.925-1.96-6.925-1.96Z" transform="translate(-364.37 -102.513)" fill="#ffd54f"/>
              </g>
              <path id="Trazado_1332" data-name="Trazado 1332" d="M386.443,108.959c6.29,1.6,8.3,4.732,10.76,9.872s10.188,25.925,12.078,30.4,1.087,11.31-.623,12.727S392.4,149.674,392.4,149.674l-10.016-18.34S378.588,114.508,386.443,108.959Z" transform="translate(-368.757 -104.167)" fill="#ffd54f"/>
            </g>
            <path id="Trazado_1333" data-name="Trazado 1333" d="M368.979,99c1.219-.059,1.537.69,3.15,2.525a23.429,23.429,0,0,0,3.036,2.919c-1.491,9.065-8.628,20.368-10.663,31.014-.088-8.618,2.813-20.55,5-33.717Z" transform="translate(-303.419 -98.994)" fill="#ffbd4f"/>
          </g>
          <g id="Head" transform="translate(34.983)">
            <path id="Trazado_1334" data-name="Trazado 1334" d="M344.823,77.225a16.463,16.463,0,0,0-2.6-4.4,23.927,23.927,0,0,0-4.152-2.751l-4.441-2.93c-5.366-3.114-4.855-10.23-3.405-13.9,3.235-8.191,12.3-11,17.85-11.117,10.531-.227,15.575,2.658,16.48,8.138a6.922,6.922,0,0,1,5.792,2.936c2.559,3.542,2.246,8.909,1.073,12.738-1.812,5.908-3.762,7.872-6.2,9.921a17.311,17.311,0,0,0-5.156,6.562Z" transform="translate(-329.251 -42.114)" fill="#37474f"/>
            <g id="Grupo_9965" data-name="Grupo 9965" transform="translate(4.319 9.289)">
              <g id="Grupo_9954" data-name="Grupo 9954">
                <path id="Trazado_1335" data-name="Trazado 1335" d="M364.276,80.679a4.845,4.845,0,0,0,4.537-1.876c2.532-2.821,2.751-5.678,1.551-7.572-.986-1.556-3.4-2.539-5.08-1.472-1.8,1.142-1.848,2.065-2.522,3.347-.692,1.315-3.311,1.186-3.973-3.964-.616-4.8-1.375-9.2-3.739-11.36-3.532-3.22-7.437-2.667-8.827-.746-1.447-2.232-3.636-3.125-6.028-1.824-2.348,1.276-4.2,4.893-4.971,14.018-.786,9.3,1.432,15.088,3.573,16.639,1.624,1.176,3.438,1.7,6.928,1.836l-.1,6.172c-2.732,3.909,8.8,7.092,15.534,1.018l.786-4.547.042-11.117A2.978,2.978,0,0,0,364.276,80.679Z" transform="translate(-335.062 -54.61)" fill="#ffbda7"/>
              </g>
              <g id="Grupo_9964" data-name="Grupo 9964" transform="translate(2.21 7.404)">
                <g id="Grupo_9956" data-name="Grupo 9956" transform="translate(12.392 5.017)">
                  <g id="Grupo_9955" data-name="Grupo 9955">
                    <path id="Trazado_1336" data-name="Trazado 1336" d="M354.777,72.934a1.63,1.63,0,0,0,1.928.807,1.215,1.215,0,0,0,1-1.558,1.63,1.63,0,0,0-1.928-.806A1.214,1.214,0,0,0,354.777,72.934Z" transform="translate(-354.705 -71.318)" fill="#263238"/>
                  </g>
                  <path id="Trazado_1337" data-name="Trazado 1337" d="M356.893,71.324c.963.02,1.54,1.313,2.462.792a1.384,1.384,0,0,1-1.866.773C357.053,72.669,356.893,71.324,356.893,71.324Z" transform="translate(-355.266 -71.32)" fill="#263238"/>
                </g>
                <g id="Grupo_9957" data-name="Grupo 9957" transform="translate(0.247)">
                  <path id="Trazado_1338" data-name="Trazado 1338" d="M338.391,66.784l3.6-.7A1.761,1.761,0,0,0,339.9,64.6,1.927,1.927,0,0,0,338.391,66.784Z" transform="translate(-338.368 -64.569)" fill="#263238"/>
                </g>
                <g id="Grupo_9959" data-name="Grupo 9959" transform="translate(0 4.618)">
                  <g id="Grupo_9958" data-name="Grupo 9958" transform="translate(0.995)">
                    <path id="Trazado_1339" data-name="Trazado 1339" d="M342.359,72.464a1.628,1.628,0,0,1-1.96.734,1.22,1.22,0,0,1-.939-1.6,1.628,1.628,0,0,1,1.96-.734A1.221,1.221,0,0,1,342.359,72.464Z" transform="translate(-339.373 -70.781)" fill="#263238"/>
                  </g>
                  <path id="Trazado_1340" data-name="Trazado 1340" d="M340.527,70.784c-.963-.017-1.591,1.251-2.492.7a1.386,1.386,0,0,0,1.835.847C340.314,72.121,340.527,70.784,340.527,70.784Z" transform="translate(-338.035 -70.782)" fill="#263238"/>
                </g>
                <g id="Grupo_9960" data-name="Grupo 9960" transform="translate(13.088 0.489)">
                  <path id="Trazado_1341" data-name="Trazado 1341" d="M355.641,66.445l3.642,1.467a1.884,1.884,0,0,0-1.013-2.541A2.062,2.062,0,0,0,355.641,66.445Z" transform="translate(-355.641 -65.227)" fill="#263238"/>
                </g>
                <g id="Grupo_9961" data-name="Grupo 9961" transform="translate(6.493 15.503)">
                  <path id="Trazado_1342" data-name="Trazado 1342" d="M352,85.424l-5.233.938a2.667,2.667,0,0,0,3.339,2.09A2.5,2.5,0,0,0,352,85.424Z" transform="translate(-346.77 -85.424)" fill="#b16668"/>
                  <path id="Trazado_1343" data-name="Trazado 1343" d="M349.289,88.706a2.788,2.788,0,0,1,3.11-2.084c.087.013.167.043.251.063a2.347,2.347,0,0,1-1.894,2.067A3.023,3.023,0,0,1,349.289,88.706Z" transform="translate(-347.416 -85.724)" fill="#f0997a"/>
                </g>
                <g id="Grupo_9962" data-name="Grupo 9962" transform="translate(2.487 3.289)">
                  <path id="Trazado_1344" data-name="Trazado 1344" d="M348.022,68.994l-.957,10.516-5.684-2.146Z" transform="translate(-341.38 -68.994)" fill="#f0997a"/>
                </g>
                <g id="Grupo_9963" data-name="Grupo 9963" transform="translate(8.422 18.989)">
                  <path id="Trazado_1345" data-name="Trazado 1345" d="M349.4,96.817a32.533,32.533,0,0,0,9.915-1.9c1.157-.462,2.749-2.512,4.063-4.806,0,0-.99,4.555-3.5,6.073-3.822,2.309-10.505,2.5-10.505,2.5Z" transform="translate(-349.364 -90.113)" fill="#f0997a"/>
                </g>
              </g>
            </g>
          </g>
          <g id="Hands" transform="translate(0 55.661)">
            <g id="Grupo_9966" data-name="Grupo 9966" transform="translate(43.718 0.767)">
              <path id="Trazado_1346" data-name="Trazado 1346" d="M342.65,120.512c-.41-1.511.65-3.72,2.611-1.644s9.046,10.584,10.555,11.547,3.445.787,5.571,1.957,5.7,4.978,7.955,5.639a12.1,12.1,0,0,1,5.638,3.124c2.029,1.87,6.033,3.6,9.676,5.541,4.179,2.228,7.541,2.954,10.132,5.333s6.18,10.74,2.607,13.206-10.34,1.34-15.264-2.278c-3.357-2.467-4.9-4.755-9.535-9.686-2.161-2.3-3.824-4.077-4.395-4.589-1.8-1.609-3.294-1.1-5.861-1.23s-6.808-1-8.207-1.879a12.7,12.7,0,0,1-3.892-4.645c-.479-1.305,1.54-2.277,1.54-2.277l-.311-2.9s-5.109-5.356-7.941-8.877a11.711,11.711,0,0,1-2.489-4.484A1.455,1.455,0,0,1,342.65,120.512Z" transform="translate(-341.001 -118.022)" fill="#ffbda7"/>
              <path id="Trazado_1347" data-name="Trazado 1347" d="M355.647,151.562c.953.414,1.752-.172,1.4-.83l.413.671c-.137.595-.833.7-.686,1.341.142.623,1.181,1.357,1.255,1.409a4.191,4.191,0,0,1-.459-.241,13.035,13.035,0,0,1-3.168-3.327A3.049,3.049,0,0,0,355.647,151.562Z" transform="translate(-344.441 -126.378)" fill="#f0997a"/>
              <path id="Trazado_1348" data-name="Trazado 1348" d="M342.391,122.326c-.679-.607-1.1-.236-1.2-.13a1.375,1.375,0,0,1,1.511-.831,26.028,26.028,0,0,0,1.553,2.313c1.136,1.562,5.8,7.146,6.676,7.614.82.44,3.65-.242,5.79.4.132.051.268.1.4.14l.007,0c-2.75-.113-4.449.054-5.108.723s-.7,2.174-.5,4.034c-1.03-1.317-.873-4.243-.873-4.243A84.525,84.525,0,0,1,344.956,126C343.481,123.948,343.17,123.023,342.391,122.326Z" transform="translate(-341.049 -118.874)" fill="#f0997a"/>
              <path id="Trazado_1349" data-name="Trazado 1349" d="M350.713,125.223l.49.558c-.727,1.818-3.063,4.787-3.7,5.844-1.3-1.444-2.661-3-3.712-4.306a17.631,17.631,0,0,1-1.653-2.409,1.907,1.907,0,0,1-.1-.186c.831-1.191,3.214-4.083,3.938-4.906C347.049,121,348.881,123.136,350.713,125.223Z" transform="translate(-341.267 -118.483)" fill="#f0997a"/>
              <path id="Trazado_1350" data-name="Trazado 1350" d="M357.141,147.21a3.591,3.591,0,0,1,.687,1.036c.072.18-.068.633-.01.809a1.374,1.374,0,0,0,.827.872,1.472,1.472,0,0,0,2.093-.754c.52.911,1.211,1.18,1.864,1.93s2.079.726,2.3-.28a3.931,3.931,0,0,0-.017-1.534,8.917,8.917,0,0,0-.346-1.085,5.7,5.7,0,0,0,.621.65c1.783,1.6,3.6,1.973,4.34,2.71-.141-.99-2.208-1.624-3.486-2.621a5.719,5.719,0,0,1-2.075-3.957,2.891,2.891,0,0,1,.208-1.208l-.729,1.282a2.823,2.823,0,0,0-.963-1.337,4.171,4.171,0,0,1,.468,2.712,2.586,2.586,0,0,1-.726,1.113,1.745,1.745,0,0,1,1.983,1.1c.7,1.331.327,2.264-.306,2.373s-.9-.368-1.28-.728c-.567-.537-1.238-1.083-1.238-1.083a2.75,2.75,0,0,1-.942-1.625,25.5,25.5,0,0,1-.469-2.975,2.534,2.534,0,0,1,.85-1.643c.592-.6,1.572-1.485,1.572-1.485a3.6,3.6,0,0,1-1.978-.115,2.614,2.614,0,0,1-1.027-1.276,5.19,5.19,0,0,1-.09,1.434c-.155.5-.481,1.545-1.089,1.789.753.062.928.579,1.134,1.08s.859,3.972.954,4.567a1.051,1.051,0,0,1-.941.548,1.014,1.014,0,0,1-.9-.432A11.544,11.544,0,0,0,357.141,147.21Z" transform="translate(-345.143 -123.685)" fill="#f0997a"/>
              <path id="Trazado_1351" data-name="Trazado 1351" d="M360.236,140.988a2.381,2.381,0,0,1-.331,2.277,2.249,2.249,0,0,1,.581,1.079,4.245,4.245,0,0,1,.844-1.311,11.29,11.29,0,0,1,1.312-1.122A2.123,2.123,0,0,1,360.236,140.988Z" transform="translate(-345.852 -123.915)" fill="#b16668"/>
              <path id="Trazado_1352" data-name="Trazado 1352" d="M355.5,145.748a5.254,5.254,0,0,0,.611,2.023c.369.6.919,1.08,1.29,1.7.2.3.367.616.573.9a1.079,1.079,0,0,0,1.715.154,1.486,1.486,0,0,0,.347-.922.1.1,0,0,1,.1-.091.1.1,0,0,1,.083.059,4.7,4.7,0,0,0,1.43,1.567,6.7,6.7,0,0,1,.815.753,1.266,1.266,0,0,0,.845.481.694.694,0,0,0,.65-.593,1.82,1.82,0,0,0-.024-1.022,4.3,4.3,0,0,0-1.176-1.76l0,0a.079.079,0,0,1-.024-.067l.25-2.009a.066.066,0,0,1,.074-.058.07.07,0,0,1,.058.069,4.31,4.31,0,0,0,.458,1.84,5.514,5.514,0,0,0,1.159,1.538,4.714,4.714,0,0,1-1.749-3.385l.132.011-.223,2.013-.027-.069a4.449,4.449,0,0,1,1.253,1.825,2.016,2.016,0,0,1,.04,1.134,1.194,1.194,0,0,1-.281.523.786.786,0,0,1-.569.236,1.483,1.483,0,0,1-1.02-.544,7.469,7.469,0,0,0-.784-.737,4.871,4.871,0,0,1-1.464-1.663l.188-.033a1.669,1.669,0,0,1-.411,1.033,1.273,1.273,0,0,1-1.036.393,1.256,1.256,0,0,1-.934-.581c-.213-.3-.375-.614-.566-.913-.353-.613-.9-1.1-1.248-1.734A5.29,5.29,0,0,1,355.5,145.748Z" transform="translate(-344.722 -125.137)" fill="#b16668"/>
              <path id="Trazado_1353" data-name="Trazado 1353" d="M357.08,150.639a.684.684,0,0,1,.052.535.725.725,0,0,1-.355.394,1.3,1.3,0,0,1-1.005.039,3.02,3.02,0,0,1-1.517-1.247,2.994,2.994,0,0,0,1.541,1.172,1.207,1.207,0,0,0,.926-.065.536.536,0,0,0,.225-.759Z" transform="translate(-344.402 -126.32)" fill="#b16668"/>
              <path id="Trazado_1354" data-name="Trazado 1354" d="M376.823,155.51c1.311,1.291.989,4.619,3.48,7.264-2.16-2.3-3.824-4.077-4.395-4.589-1.553-1.39-2.884-1.2-4.874-1.206C373.588,156.574,375.512,154.219,376.823,155.51Z" transform="translate(-348.708 -127.544)" fill="#f0997a"/>
            </g>
            <g id="Grupo_9970" data-name="Grupo 9970">
              <path id="Trazado_1355" data-name="Trazado 1355" d="M305.367,134.133c2.049-1.327,2.716-1.868,4.249-3.009a18.581,18.581,0,0,0,3.64-3.445c1.029-1.384,1.806-1.98,2.8-1.736a4.578,4.578,0,0,0,2.313.145,2.835,2.835,0,0,1,2.521.655c1.208.8,2.4,1.318,3.533.191s5.618-6.409,6.953-8.211,2.422-2.136,3.033-1.295c.674.928.015,2.75.015,2.75a1.669,1.669,0,0,1,1.832,1.07c.622,1.341-.392,3.3-2.284,5.847s-3.109,4.25-3.7,4.838-.993,1.1-1.673,1.76c-.3.812-4.215,4.213-4.215,4.213A3.044,3.044,0,0,1,324,141.08a3.931,3.931,0,0,1-2.161,1.589c-.419.153-.857.3-1.283.43a12.237,12.237,0,0,1-2.242.384,21.964,21.964,0,0,1-4.573-.242c-2.612-.226-5.076,1.18-7.119,2.658-1.027.742-8.142,7.4-11.864,8.536s-10.78.716-12-1.638-.555-5.795,3.11-9.61,7.427-4.806,12-6.186C303.01,135.446,304.106,134.949,305.367,134.133Z" transform="translate(-282.191 -116.99)" fill="#ffbda7"/>
              <path id="Trazado_1356" data-name="Trazado 1356" d="M306.236,155.7c1.511-1.346,2.067-2.36,4.354-5.044s5.279-3.663,5.565-8.127a5.909,5.909,0,0,1,2.121-4.322h0a22.279,22.279,0,0,0,1.951-1.767c.142-.421-.064-1.641.288-2.243a15.843,15.843,0,0,0,.436,2.6,26.822,26.822,0,0,1-.667,3c-.454,1.742.173,2.422.733,2.714a.534.534,0,0,0,.457.041,4.932,4.932,0,0,0,.032.9c.125.888.789.871,1.152.87s.9-.726,1.577-1.422,1.483-1.761,1.483-1.761a11.261,11.261,0,0,0,.149,1.269,26.348,26.348,0,0,0,1.271,2.623,1.99,1.99,0,0,1-.718,2.344,2.176,2.176,0,0,0-.286.284c-.546.114-1.107.17-1.655.234a21.963,21.963,0,0,1-4.573-.242c-2.612-.226-5.076,1.18-7.119,2.658C311.762,151.058,308.821,153.777,306.236,155.7Z" transform="translate(-288.362 -121.407)" fill="#f0997a"/>
              <path id="Trazado_1357" data-name="Trazado 1357" d="M342.507,131.952a2.239,2.239,0,0,0-.041.615c.018.243.107.553.114.732s-.177.036-.277-.056a2.322,2.322,0,0,1-.613-.888,1.368,1.368,0,0,1,.187-1.457,35.474,35.474,0,0,0,3.524-3.768c1.024-1.293,3.522-4.212,4.266-5.861a1.671,1.671,0,0,1,1.832,1.069.836.836,0,0,0-.843-.291c-.637.062-1.194,1.093-2.144,2.455s-2.883,3.49-4.252,5.027a10.173,10.173,0,0,0-1.527,1.8A2.24,2.24,0,0,0,342.507,131.952Z" transform="translate(-297.428 -118.083)" fill="#f0997a"/>
              <path id="Trazado_1358" data-name="Trazado 1358" d="M341.8,131.033c.735-.752,1.438-1.534,2.145-2.308s1.376-1.573,2.024-2.406q1.006-1.214,1.976-2.452a19.244,19.244,0,0,0,1.781-2.588,14.6,14.6,0,0,1-1.634,2.7c-.619.853-1.282,1.671-1.938,2.492a31.365,31.365,0,0,1-2.076,2.381C343.345,129.6,342.6,130.344,341.8,131.033Z" transform="translate(-297.488 -118.09)" fill="#b16668"/>
              <path id="Trazado_1359" data-name="Trazado 1359" d="M329.771,129.826c-.634.19-.912-.261-1.413-.668a3.971,3.971,0,0,0,1.863.043,2.623,2.623,0,0,1,.653-.08C330.389,129.314,330.39,129.64,329.771,129.826Z" transform="translate(-294.039 -120.103)" fill="#f0997a"/>
              <path id="Trazado_1360" data-name="Trazado 1360" d="M336.354,135.386a10.588,10.588,0,0,0-.62-4.488h0a1.96,1.96,0,0,0,2.136-.41l-.005.006a2.447,2.447,0,0,0-.909,1.559c.018,2.151.391,3.256.364,3.841-.048,1.033-.81,1.7-.384,2.475s1,1.638,1.873,1.418a8.828,8.828,0,0,0,2.322-1.389l-.013.013q-1.027,1.016-2.041,1.941c-.282.256-.533.48-.729.653-.138.121-.275.245-.413.363l0,0a2.6,2.6,0,0,0-.6-.961,20.848,20.848,0,0,0-1.693-2.207,3.543,3.543,0,0,0-.674-.346A6.019,6.019,0,0,0,336.354,135.386Z" transform="translate(-295.733 -120.454)" fill="#f0997a"/>
              <path id="Trazado_1361" data-name="Trazado 1361" d="M337.254,143.881a1.949,1.949,0,0,0-.434-.7l-.546-.632c-.181-.213-.358-.429-.526-.655s-.3-.48-.468-.69a1.419,1.419,0,0,0-1.291-.7,1.854,1.854,0,0,0-1.073,1.076,3.138,3.138,0,0,0-.375,1.551,4,4,0,0,0,.4,1.567c.222.5.569.946.788,1.471a2.065,2.065,0,0,1,.143,1.632,2.013,2.013,0,0,0-.249-1.583c-.232-.5-.592-.928-.847-1.44a3.924,3.924,0,0,1-.448-1.641,3.365,3.365,0,0,1,.379-1.666,2.058,2.058,0,0,1,1.243-1.181,1.571,1.571,0,0,1,1.482.81c.169.237.284.488.443.711s.324.448.494.668l.5.67A1.956,1.956,0,0,1,337.254,143.881Z" transform="translate(-295.055 -122.964)" fill="#b16668"/>
              <path id="Trazado_1362" data-name="Trazado 1362" d="M329.226,132.628a14.823,14.823,0,0,1,.3,2.44,5.405,5.405,0,0,1-.115,1.235,5.521,5.521,0,0,1-.462,1.151l-1.106,2.192c-.183.366-.366.731-.53,1.1a5.614,5.614,0,0,1-.567,1.113,1.044,1.044,0,0,1-.532.419.8.8,0,0,1-.66-.175,1.654,1.654,0,0,1-.7-1.062,5.463,5.463,0,0,1,.32-2.45,14.4,14.4,0,0,0,.479-2.378,9.048,9.048,0,0,1-.375-2.415,9.033,9.033,0,0,0,.466,2.4,4.5,4.5,0,0,1-.153,1.23l-.27,1.2a5.332,5.332,0,0,0-.279,2.371,1.451,1.451,0,0,0,.63.927.59.59,0,0,0,.483.137.832.832,0,0,0,.4-.341,6.553,6.553,0,0,0,.552-1.067c.175-.375.364-.737.554-1.1l1.142-2.171a5.441,5.441,0,0,0,.469-1.113,5.235,5.235,0,0,0,.132-1.2A14.865,14.865,0,0,0,329.226,132.628Z" transform="translate(-293.126 -121.003)" fill="#b16668"/>
              <path id="Trazado_1363" data-name="Trazado 1363" d="M327.69,146.8a.934.934,0,0,1-.462-.128,1.636,1.636,0,0,1-.652-1.786.115.115,0,0,1,.141-.092.119.119,0,0,1,.092.141,1.4,1.4,0,0,0,.537,1.528.629.629,0,0,0,.775-.081c.7-.642,1.357-1.355,1.969-2.032a4.807,4.807,0,0,0,.772-1.012.12.12,0,0,1,.219.1,4.785,4.785,0,0,1-.813,1.077c-.616.68-1.276,1.4-1.986,2.048A.87.87,0,0,1,327.69,146.8Z" transform="translate(-293.57 -123.734)" fill="#b16668"/>
              <g id="Grupo_9967" data-name="Grupo 9967" transform="translate(33.559 13.547)">
                <path id="Trazado_1364" data-name="Trazado 1364" d="M327.337,135.841a.354.354,0,0,1,.093-.137,1.557,1.557,0,0,1,.754-.461,1.087,1.087,0,0,1,1.16.419c.113.169.24.474-.065.43-.16-.023-.3-.1-.456-.14a2.641,2.641,0,0,0-.856-.109c-.12.015-.223.065-.341.091-.065.014-.236.041-.279-.033A.083.083,0,0,1,327.337,135.841Z" transform="translate(-327.335 -135.214)" fill="#f0997a"/>
                <path id="Trazado_1365" data-name="Trazado 1365" d="M333.348,135.84a.358.358,0,0,1,.115-.118,1.552,1.552,0,0,1,.821-.325,1.088,1.088,0,0,1,1.071.613c.083.185.155.508-.139.412-.153-.05-.278-.155-.425-.216a2.67,2.67,0,0,0-.825-.254c-.121-.006-.231.026-.352.031-.067,0-.24,0-.269-.081A.081.081,0,0,1,333.348,135.84Z" transform="translate(-328.876 -135.261)" fill="#f0997a"/>
              </g>
              <g id="Grupo_9968" data-name="Grupo 9968" transform="translate(45.908 4.709)">
                <path id="Trazado_1366" data-name="Trazado 1366" d="M347.5,123.338a.11.11,0,0,1,.08-.011c.12.019.228.155.321.222a2.565,2.565,0,0,0,.408.246c.18.083.356.155.541.226.128.048.411.139.435.3a.383.383,0,0,1-.306.39,1.577,1.577,0,0,1-1.01-.416,1.537,1.537,0,0,1-.38-.5C347.55,123.7,347.388,123.418,347.5,123.338Z" transform="translate(-344.849 -123.325)" fill="#f0997a"/>
                <path id="Trazado_1367" data-name="Trazado 1367" d="M344.13,127.806a.86.86,0,0,1,.157.16,2.6,2.6,0,0,0,.526.462,5.763,5.763,0,0,1,.726.348c.151.127.03.366-.1.458-.163.114-.449-.022-.6-.114a2.677,2.677,0,0,1-.224-.15,3.108,3.108,0,0,1-.37-.389,1.275,1.275,0,0,1-.282-.509c-.025-.1-.02-.325.136-.282A.168.168,0,0,1,344.13,127.806Z" transform="translate(-343.947 -124.469)" fill="#f0997a"/>
                <path id="Trazado_1368" data-name="Trazado 1368" d="M350.163,127.636a.193.193,0,0,1,.112.036c.029.021.057.041.087.06.061.041.113.1.171.141a2.837,2.837,0,0,0,.4.265c.271.148.575.2.853.332a.228.228,0,0,1,.088.264.306.306,0,0,1-.169.231.351.351,0,0,1-.249-.036c-.083-.033-.169-.058-.254-.088a1.957,1.957,0,0,1-.434-.242,2.128,2.128,0,0,1-.377-.349,1.2,1.2,0,0,1-.166-.217.888.888,0,0,1-.106-.336C350.119,127.67,350.13,127.633,350.163,127.636Z" transform="translate(-345.531 -124.431)" fill="#f0997a"/>
                <path id="Trazado_1369" data-name="Trazado 1369" d="M347.1,131.94a1.351,1.351,0,0,0,.156.048,1.649,1.649,0,0,1,.178.08,3.846,3.846,0,0,1,.374.22c.118.075.237.148.357.22.07.042.14.083.21.123a.606.606,0,0,1,.193.125.292.292,0,0,1,.005.33.237.237,0,0,1-.271.138.973.973,0,0,1-.244-.165c-.048-.036-.1-.072-.143-.109-.1-.078-.2-.161-.291-.246a2.065,2.065,0,0,1-.276-.271c-.047-.061-.1-.122-.139-.186s-.08-.151-.132-.22C347.064,132.007,347.052,131.914,347.1,131.94Z" transform="translate(-344.747 -125.535)" fill="#f0997a"/>
              </g>
              <g id="Grupo_9969" data-name="Grupo 9969" transform="translate(28.268 19.979)">
                <path id="Trazado_1370" data-name="Trazado 1370" d="M332.255,145.642a11.508,11.508,0,0,0-2.244.088l1.826-1.864A3.559,3.559,0,0,0,332.255,145.642Z" transform="translate(-322.731 -143.866)" fill="#b16668"/>
                <path id="Trazado_1371" data-name="Trazado 1371" d="M323.742,144.159a4.544,4.544,0,0,1-3.524,3.537,4.214,4.214,0,0,0,4.151-2.666A2.558,2.558,0,0,1,323.742,144.159Z" transform="translate(-320.218 -143.941)" fill="#b16668"/>
              </g>
            </g>
          </g>
        </g>
      </g>
    </g>
    <g id="Character_1" data-name="Character 1" transform="translate(62.718 34.792)">
      <g id="Chartacter" transform="translate(0 0)">
        <g id="Bottom-2" data-name="Bottom" transform="translate(0 109.756)">
          <g id="Grupo_9978" data-name="Grupo 9978" transform="translate(55.382 140.664)">
            <path id="Trazado_1372" data-name="Trazado 1372" d="M164.406,400.02l5.04-1.923-1.667-3.409-3.094,2.905Z" transform="translate(-158.791 -377.742)"/>
            <path id="Trazado_1373" data-name="Trazado 1373" d="M157.249,389.641s-.185,3.288-.225,4.323,4.39,4.234,5.488,4.761l.279-2.427a18.785,18.785,0,0,1,2.548,3.911c.856,1.473,1.953,4.261,4.3,6.154,3.482,2.81,8.893,4.219,14.408,4.393s8.665-1.195,10.227-2.4,2.052-2.6,1.654-4S157.249,389.641,157.249,389.641Z" transform="translate(-156.896 -376.447)" fill="#263238"/>
            <g id="Grupo_9971" data-name="Grupo 9971">
              <path id="Trazado_1374" data-name="Trazado 1374" d="M171.9,373.8l.058-1.908c1.016-.035,1.151,2.726,2.646,5.143a49.3,49.3,0,0,0,7.807,9.886c5.615,5.068,10.619,8.243,13.124,10.526,3.353,3.053-2.489,7.959-11.49,7.5-4.468-.23-12.413-2.438-14.655-5.067s-3.631-6.736-5.425-8.645-5.637-3.824-6.76-6.146c-.617-1.276-.309-4.262.045-6.8.325-2.329.377-5.9,1.69-5.614l.1,1.2c.541,1.015,1.792,2.69,5.4,3.281C166.235,377.444,171.6,377.58,171.9,373.8Z" transform="translate(-156.852 -371.893)" fill="#37474f"/>
              <path id="Trazado_1375" data-name="Trazado 1375" d="M170.94,378.266c1.718-.155,3.565-.734,4.278-2.287.009-.019.023-.031.03-.051a4.364,4.364,0,0,0,1.179,3.66c1.618,1.876,11.846,15.105,11.846,15.105s-9.513-10.908-11.337-12.962c-2.7-3.037-3.551-3.388-6.006-3.462Z" transform="translate(-160.465 -372.928)" opacity="0.15"/>
            </g>
            <g id="Grupo_9972" data-name="Grupo 9972" transform="translate(11.64 8.238)">
              <path id="Trazado_1376" data-name="Trazado 1376" d="M173.608,383.583a.55.55,0,1,1-.489-.605A.55.55,0,0,1,173.608,383.583Z" transform="translate(-172.511 -382.975)" opacity="0.15"/>
              <path id="Trazado_1377" data-name="Trazado 1377" d="M177.2,387.515a.55.55,0,1,1-.489-.605A.55.55,0,0,1,177.2,387.515Z" transform="translate(-173.432 -383.984)" opacity="0.15"/>
              <path id="Trazado_1378" data-name="Trazado 1378" d="M180.791,391.448a.551.551,0,1,1-.49-.606A.55.55,0,0,1,180.791,391.448Z" transform="translate(-174.354 -384.993)" opacity="0.15"/>
              <path id="Trazado_1379" data-name="Trazado 1379" d="M184.382,395.38a.551.551,0,1,1-.489-.606A.55.55,0,0,1,184.382,395.38Z" transform="translate(-175.275 -386.002)" opacity="0.15"/>
              <path id="Trazado_1380" data-name="Trazado 1380" d="M187.973,399.312a.55.55,0,1,1-.489-.605A.55.55,0,0,1,187.973,399.312Z" transform="translate(-176.197 -387.011)" opacity="0.15"/>
            </g>
            <g id="Grupo_9973" data-name="Grupo 9973" transform="translate(11.969 6.13)">
              <path id="Trazado_1381" data-name="Trazado 1381" d="M173.158,383.018a.222.222,0,0,1-.14-.378,9.052,9.052,0,0,1,6.21-2.491h0a.222.222,0,0,1-.028.442,8.752,8.752,0,0,0-5.875,2.364A.221.221,0,0,1,173.158,383.018Z" transform="translate(-172.953 -380.139)" fill="#263238"/>
            </g>
            <g id="Grupo_9974" data-name="Grupo 9974" transform="translate(14.64 9.044)">
              <path id="Trazado_1382" data-name="Trazado 1382" d="M176.75,386.937a.222.222,0,0,1-.139-.378,9.05,9.05,0,0,1,6.21-2.491h0a.222.222,0,0,1-.028.442,8.769,8.769,0,0,0-5.875,2.363A.223.223,0,0,1,176.75,386.937Z" transform="translate(-176.546 -384.058)" fill="#263238"/>
            </g>
            <g id="Grupo_9975" data-name="Grupo 9975" transform="translate(17.308 11.976)">
              <path id="Trazado_1383" data-name="Trazado 1383" d="M180.34,390.882a.219.219,0,0,1-.14-.065.221.221,0,0,1,0-.313,9.049,9.049,0,0,1,6.21-2.492h0a.222.222,0,0,1-.029.442,8.767,8.767,0,0,0-5.874,2.364A.219.219,0,0,1,180.34,390.882Z" transform="translate(-180.136 -388.003)" fill="#263238"/>
            </g>
            <g id="Grupo_9976" data-name="Grupo 9976" transform="translate(19.978 14.899)">
              <path id="Trazado_1384" data-name="Trazado 1384" d="M183.931,394.815a.221.221,0,0,1-.139-.378,9.049,9.049,0,0,1,6.21-2.493h0a.222.222,0,0,1-.029.442,8.762,8.762,0,0,0-5.874,2.365A.222.222,0,0,1,183.931,394.815Z" transform="translate(-183.727 -391.935)" fill="#263238"/>
            </g>
            <g id="Grupo_9977" data-name="Grupo 9977" transform="translate(22.648 17.823)">
              <path id="Trazado_1385" data-name="Trazado 1385" d="M187.523,398.746a.217.217,0,0,1-.14-.065.221.221,0,0,1,0-.313,9.05,9.05,0,0,1,6.21-2.491h0a.222.222,0,0,1-.029.442,8.768,8.768,0,0,0-5.874,2.363A.219.219,0,0,1,187.523,398.746Z" transform="translate(-187.319 -395.868)" fill="#263238"/>
            </g>
          </g>
          <g id="Grupo_9985" data-name="Grupo 9985" transform="translate(0 145.782)">
            <g id="Grupo_9979" data-name="Grupo 9979">
              <path id="Trazado_1386" data-name="Trazado 1386" d="M102.1,420.875c-.768,4.3-1.783,7.093-3.622,9.451s-5.143,2.626-7.6,2.111a10.521,10.521,0,0,1-8.158-8.052c-.793-2.968-.248-6.368.9-10.305Z" transform="translate(-82.351 -387.837)" fill="#263238"/>
              <path id="Trazado_1387" data-name="Trazado 1387" d="M92.679,378.778c-1.221-.049-2.27,5.724-3.66,11.464-1.49,6.153-3.816,9.416-4.938,13.551-1.556,5.731-1.463,8.4.165,12.184s10.1,8.392,14.272,3.754c3.4-3.781,4.07-8.344,4.5-14.214a149.2,149.2,0,0,1,1.5-14.893c.757-4.35,1.564-8.557.571-9.17-.158.633-.333,1.44-.494,2.061-.123.477-.526,2.833-1.206,2.775a9.091,9.091,0,0,1,.183-1.651,1.966,1.966,0,0,0-.164-1.451,2.285,2.285,0,0,0-1.271-.76,34.645,34.645,0,0,0-3.533-.984,18.215,18.215,0,0,0-1.8-.292,20.243,20.243,0,0,0-3.187-.245,1.08,1.08,0,0,0-.726.516,1.919,1.919,0,0,0-.143.66,4.874,4.874,0,0,1-.294,1.182c-.065.167-.209.364-.377.3-.137-.051-.172-.233-.155-.378.08-.706.23-1.208.361-2.025.06-.378.184-.887.234-1.267S92.61,379.148,92.679,378.778Z" transform="translate(-82.509 -378.778)" fill="#37474f"/>
              <path id="Trazado_1388" data-name="Trazado 1388" d="M90.2,414.969a.426.426,0,1,0,.508-.323A.427.427,0,0,0,90.2,414.969Z" transform="translate(-84.362 -387.979)" opacity="0.15"/>
              <path id="Trazado_1389" data-name="Trazado 1389" d="M91.388,409.606a.426.426,0,1,0,.508-.324A.426.426,0,0,0,91.388,409.606Z" transform="translate(-84.668 -386.603)" opacity="0.15"/>
              <path id="Trazado_1390" data-name="Trazado 1390" d="M92.513,404.545a.426.426,0,1,0,.508-.324A.425.425,0,0,0,92.513,404.545Z" transform="translate(-84.956 -385.304)" opacity="0.15"/>
              <path id="Trazado_1391" data-name="Trazado 1391" d="M93.622,399.554a.426.426,0,1,0,.508-.323A.426.426,0,0,0,93.622,399.554Z" transform="translate(-85.241 -384.024)" opacity="0.15"/>
              <path id="Trazado_1392" data-name="Trazado 1392" d="M106.407,401.89a.426.426,0,1,0,.508-.323A.427.427,0,0,0,106.407,401.89Z" transform="translate(-88.522 -384.623)" opacity="0.15"/>
              <path id="Trazado_1393" data-name="Trazado 1393" d="M105.29,406.915a.426.426,0,1,0,.508-.323A.426.426,0,0,0,105.29,406.915Z" transform="translate(-88.235 -385.913)" opacity="0.15"/>
              <path id="Trazado_1394" data-name="Trazado 1394" d="M104.165,411.977a.426.426,0,1,0,.508-.323A.425.425,0,0,0,104.165,411.977Z" transform="translate(-87.947 -387.212)" opacity="0.15"/>
              <path id="Trazado_1395" data-name="Trazado 1395" d="M102.973,417.343a.426.426,0,1,0,.508-.323A.427.427,0,0,0,102.973,417.343Z" transform="translate(-87.641 -388.589)" opacity="0.15"/>
              <path id="Trazado_1396" data-name="Trazado 1396" d="M97.882,409.786l6.6-27.771-1.558-.218Z" transform="translate(-86.337 -379.552)" opacity="0.15"/>
            </g>
            <g id="Grupo_9984" data-name="Grupo 9984" transform="translate(6.035 15.162)">
              <g id="Grupo_9980" data-name="Grupo 9980" transform="translate(0 11.645)">
                <path id="Trazado_1397" data-name="Trazado 1397" d="M90.642,415.325a.214.214,0,0,0,.065,0c2.869-.287,7.6.567,9.365,1.7a.216.216,0,0,0,.234-.364c-1.865-1.2-6.641-2.071-9.642-1.769a.216.216,0,0,0-.023.426Z" transform="translate(-90.469 -414.839)" fill="#263238"/>
              </g>
              <g id="Grupo_9981" data-name="Grupo 9981" transform="translate(0.886 7.472)">
                <path id="Trazado_1398" data-name="Trazado 1398" d="M91.833,409.9a.2.2,0,0,0,.112-.007c2.254-.755,7.308.418,9.319,1.714a.216.216,0,1,0,.234-.363c-2.1-1.354-7.314-2.559-9.69-1.761a.216.216,0,0,0,.025.416Z" transform="translate(-91.661 -409.225)" fill="#263238"/>
              </g>
              <g id="Grupo_9982" data-name="Grupo 9982" transform="translate(1.722 3.71)">
                <path id="Trazado_1399" data-name="Trazado 1399" d="M92.958,404.837a.217.217,0,0,0,.113-.007c2.253-.755,7.307.417,9.317,1.713a.216.216,0,1,0,.234-.363c-2.094-1.355-7.311-2.559-9.688-1.761a.216.216,0,0,0,.024.417Z" transform="translate(-92.786 -404.164)" fill="#263238"/>
              </g>
              <g id="Grupo_9983" data-name="Grupo 9983" transform="translate(2.546)">
                <path id="Trazado_1400" data-name="Trazado 1400" d="M94.067,399.846a.215.215,0,0,0,.112-.007c2.254-.755,7.307.419,9.319,1.714a.216.216,0,1,0,.234-.363c-2.1-1.354-7.313-2.559-9.69-1.761a.216.216,0,0,0,.025.416Z" transform="translate(-93.895 -399.174)" fill="#263238"/>
              </g>
            </g>
          </g>
          <g id="Grupo_9986" data-name="Grupo 9986" transform="translate(5.482)">
            <path id="Trazado_1401" data-name="Trazado 1401" d="M102.016,186.271c-2.823,35.785-5.6,85.116-5.6,85.116-.253,2.717-2.866,14.315-4.179,27.721-1.384,14.142-2.51,40.628-2.51,40.628s9.893,5.32,17.906,2.648c0,0,8.59-44.61,12.7-61.277,3.89-15.773,9.972-45.668,9.972-45.668l4.146,29.58s-.551,10.2-.248,17.336c.352,8.3,5.65,48.191,5.65,48.191s10.757,6.337,19.081-.038c0,0,1.439-55.017,1.673-65,.458-19.587-1.829-57.549-2.543-82.835Z" transform="translate(-89.726 -182.67)" fill="#263238"/>
            <path id="Trazado_1402" data-name="Trazado 1402" d="M119.05,243.727q-1.121,12.865-2.5,25.706-.675,6.422-1.406,12.837l-.728,6.415-.376,3.206c-.118,1.07-.336,2.125-.5,3.188-1.412,8.491-3.585,23.911-5.125,32.382s-3.177,16.924-4.929,25.354q1.671-12.808,3.671-25.552c1.326-8.5,3.4-23.928,4.856-32.406.169-1.062.394-2.115.517-3.183l.393-3.2.809-6.4q.81-6.4,1.669-12.793Q117.106,256.491,119.05,243.727Z" transform="translate(-93.257 -198.339)"/>
            <path id="Trazado_1403" data-name="Trazado 1403" d="M177.738,240.459c.9,8,1.373,16.045,1.717,24.085.312,8.027.659,16.108.358,24.146-.193,8.043-.4,21.526-.706,29.567q-.421,12.062-1.146,24.115-.188-12.073-.075-24.133c.054-8.042.2-21.522.364-29.56l.152-6.029.037-1.506-.017-1.494-.033-3.014-.148-12.058-.2-12.058C178,248.5,177.868,244.482,177.738,240.459Z" transform="translate(-112.312 -197.5)"/>
            <path id="Trazado_1404" data-name="Trazado 1404" d="M144.313,244.857l3.495-19.6s9.714-1.415,14.691-5.885c0,0-3.211,5.91-12.371,8.226l-3.474,17.315,1.8,29.524Z" transform="translate(-103.734 -192.089)"/>
          </g>
        </g>
        <g id="Top-2" data-name="Top" transform="translate(5.348)">
          <g id="Chest-2" data-name="Chest" transform="translate(0 47.036)">
            <path id="Arm" d="M165.6,101.833c5,1.306,9.522,2.629,14.1,9.694,5.832,8.993,18.564,27.1,19.587,37.05.717,6.98-16.821,2-16.821,2L170,130.562Z" transform="translate(-109.062 -99.205)" fill="#1e88e5"/>
            <path id="Chest-3" data-name="Chest" d="M118.184,98.3c-8.732,1.957-11.351,2.806-15.482,3.767,0,0-7.688,21.766-3.989,36.938.851,3.492,3.719,13.112,4.3,20.543a88.445,88.445,0,0,1,0,17.391s11.68,8.191,36.1,5.691c19.176-1.963,21.481-9.1,21.481-9.1s-1.209-26.2-2.089-40.359c-1.155-18.593-8.178-29.709-10.338-32.24-.685-.4-13.7-2.357-13.7-2.357Z" transform="translate(-91.64 -98.298)" fill="#b3e5fc"/>
            <path id="Arm-2" data-name="Arm" d="M100.607,103.366c-9.4,2.891-10.3,7.221-10.928,11.222-.786,5.019,2.046,14.538,4.3,23.367,2.994,11.737,9.149,22.883,16.494,23.2l5.168-22.2-4.768-14.645S108.492,106.134,100.607,103.366Z" transform="translate(-89.546 -99.599)" fill="#1e88e5"/>
          </g>
          <g id="Head-2" data-name="Head" transform="translate(14.9)">
            <g id="Grupo_9989" data-name="Grupo 9989">
              <g id="Grupo_9987" data-name="Grupo 9987">
                <path id="Trazado_1405" data-name="Trazado 1405" d="M117.617,47.078s-2.825.179-4.719,3.714c-.952,1.775-1.659,5.027.769,14.38a37.532,37.532,0,0,0,4.353,10.34,4.612,4.612,0,0,0,2.649,2.17l-.1-7.166-.2-4.995s4.071-3.6,4.462-7.185a11.476,11.476,0,0,0-1.264-7.248Z" transform="translate(-110.212 -38.117)" fill="#37474f"/>
                <path id="Trazado_1406" data-name="Trazado 1406" d="M118.234,44.213c.749-4.019,5.917-8.76,15.776-9.163,8.078-.329,12.765,2.506,15.517,7.248s.823,10.815.823,10.815l-25.344-1.974Z" transform="translate(-111.808 -35.024)" fill="#37474f"/>
                <path id="Trazado_1407" data-name="Trazado 1407" d="M113.377,72.636c3.69,1.852,5.42-1.064,5.42-1.064l.372,16.091c7.006,9.627,26.067,6.026,18.357-1.215l.027-4.532a26.3,26.3,0,0,0,3.219-.306c3.292-.477,5.387-2.788,6.411-6.335,1.511-5.248,2.186-13.668.314-22.657-.361-1.736-1.085-3.634-2.664-4.439-3.92-2-7.6.766-13.125,2.84-2.287.859-7.81,1.18-9.257.479,1.891,2.14.714,7.609.184,9.338-.767,2.495-1.838,3.7-2.361,3.8-2.257.445-2.494-1.49-3.492-2.559a4.139,4.139,0,0,0-6.458,1.4A6.743,6.743,0,0,0,113.377,72.636Z" transform="translate(-109.589 -38.223)" fill="#ffa8a7"/>
                <path id="Trazado_1408" data-name="Trazado 1408" d="M128.4,87.847c.729,3.647,5.621,6.1,13.968,6.407l.014-1.98a38.758,38.758,0,0,1-6.115-.631C132.365,90.951,128.4,87.847,128.4,87.847Z" transform="translate(-114.416 -48.58)" fill="#f28f8f"/>
              </g>
              <g id="Grupo_9988" data-name="Grupo 9988" transform="translate(18.062 16.136)">
                <path id="Trazado_1409" data-name="Trazado 1409" d="M137.674,58.745l-3.646,1.531a2.076,2.076,0,0,1,1.1-2.655A1.93,1.93,0,0,1,137.674,58.745Z" transform="translate(-133.887 -56.92)" fill="#37474f"/>
                <path id="Trazado_1410" data-name="Trazado 1410" d="M156.195,59.336l-3.814-1.155a1.913,1.913,0,0,1,2.417-1.366A2.093,2.093,0,0,1,156.195,59.336Z" transform="translate(-138.633 -56.73)" fill="#37474f"/>
                <path id="Trazado_1411" data-name="Trazado 1411" d="M135.852,63.868a1.611,1.611,0,1,0,1.574-1.649A1.612,1.612,0,0,0,135.852,63.868Z" transform="translate(-134.391 -58.139)" fill="#263238"/>
                <path id="Trazado_1412" data-name="Trazado 1412" d="M152.251,63.338a1.612,1.612,0,1,0,1.574-1.648A1.468,1.468,0,0,0,152.251,63.338Z" transform="translate(-138.599 -58.003)" fill="#263238"/>
                <path id="Trazado_1413" data-name="Trazado 1413" d="M144.121,60.316,145.9,71.557l6.076-2.3C150.09,64.953,146.667,62.235,144.121,60.316Z" transform="translate(-136.513 -57.65)" fill="#f28f8f"/>
              </g>
            </g>
            <g id="Grupo_9990" data-name="Grupo 9990" transform="translate(23.919 31.694)">
              <path id="Trazado_1414" data-name="Trazado 1414" d="M141.775,77.659l7.257.706a3.583,3.583,0,0,1-3.893,3.386A3.819,3.819,0,0,1,141.775,77.659Z" transform="translate(-141.765 -77.659)" fill="#b16668"/>
              <path id="Trazado_1415" data-name="Trazado 1415" d="M142.8,79.08a3.972,3.972,0,0,0-.876.113,3.767,3.767,0,0,0,3.252,2.922,3.48,3.48,0,0,0,1.164-.1A3.339,3.339,0,0,0,142.8,79.08Z" transform="translate(-141.807 -78.024)" fill="#f28f8f"/>
            </g>
          </g>
          <g id="Hands-2" data-name="Hands" transform="translate(17.812 43.858)">
            <path id="Trazado_1416" data-name="Trazado 1416" d="M141.164,124.287c-5.752,5.015-11.5,9.872-16.655,14.1-4.383,3.593-7.484,6.041-9.167,8.939s-2.753,13.838-.748,17.756,12.556-.028,16.687-4.1,7.293-11.6,10.692-17.061,5.893-9.087,8.812-10.621Z" transform="translate(-113.506 -101.789)" fill="#ffa8a7"/>
            <path id="Trazado_1417" data-name="Trazado 1417" d="M156.286,136.132l-.842-.788c-3.09,1.267-5.173,3.335-7.668,7.01-3.159,4.657-7.484,19.016-12.84,22.983a15.077,15.077,0,0,0,1.845-1.524c4.131-4.077,7.293-11.6,10.692-17.061S153.367,137.666,156.286,136.132Z" transform="translate(-119.006 -104.627)" fill="#f28f8f"/>
            <g id="Grupo_9991" data-name="Grupo 9991" transform="translate(43.659 28.853)">
              <path id="Trazado_1418" data-name="Trazado 1418" d="M184.265,136.1c-.592.982.512,2.664,1.274,3.718a29.328,29.328,0,0,0,6.525,5.621c3.264,2.1,6.424,4.99,7.973,8.323s1.449,9.624-.072,11.891-5.2,1.442-8.48-.1c-4.514-2.125-6.979-5.471-10.347-10.412-3.661-5.371-6.459-9.941-8.665-12.634S184.265,136.1,184.265,136.1Z" transform="translate(-172.237 -133.672)" fill="#ffa8a7"/>
              <path id="Trazado_1419" data-name="Trazado 1419" d="M185.783,159.927c-2.135-2.856-7.781-15.537-6.506-17.935s4.787-3.995,5.632-3.11h0c-.592-.954-1.082-2.061-.644-2.787,0,0-14,3.71-11.792,6.4s5,7.264,8.666,12.635c3.367,4.94,5.833,8.286,10.346,10.412A35.637,35.637,0,0,1,185.783,159.927Z" transform="translate(-172.237 -133.672)" fill="#f28f8f"/>
              <path id="Trazado_1420" data-name="Trazado 1420" d="M188.751,133.428c-1.983.189-3.618,1.4-5.174,2.565s-6.721,4.813-9.673,5S183.44,130.207,188.751,133.428Z" transform="translate(-172.55 -132.836)" fill="#b16668"/>
            </g>
            <g id="Grupo_9992" data-name="Grupo 9992" transform="translate(32.562 24.228)">
              <path id="Trazado_1421" data-name="Trazado 1421" d="M176.282,126.767c3.059-.6,5.253.73,8.054.931s4.431-.075,6.379,1.1,2.753,2.75.337,3.458-4.725-.521-7.076-.364a9.754,9.754,0,0,0-6.549,2.637c-2.629,2.15-6.284,5.937-8.455,7.333s-3.458.337-3.458.337a8.734,8.734,0,0,1-2.748,2.161,1.385,1.385,0,0,1-1.865-1.534c-1.172.114-2.179-.5-1.905-1.944s2.559-4.1,2.559-4.1-1.361,1.149-2.084,1.682c-1.349,1-2.73-.089-1.917-2.062s7.66-7.61,10.177-8.506a8.242,8.242,0,0,1,4.879-.111A23.559,23.559,0,0,1,176.282,126.767Z" transform="translate(-157.31 -126.615)" fill="#ffa8a7"/>
              <path id="Trazado_1422" data-name="Trazado 1422" d="M160.57,138.185c-2.035,1.656-2.707,1.9-3.14,1.6.277.816,1.178,1.07,2.07.412.723-.534,2.084-1.682,2.084-1.682l5.016-5.139S162.681,136.467,160.57,138.185Z" transform="translate(-157.34 -128.351)" fill="#f28f8f"/>
              <path id="Trazado_1423" data-name="Trazado 1423" d="M167.768,135.86c-.4.8-1.837,2.089-3.045,3.667a28.028,28.028,0,0,1-3.654,4.26,1.091,1.091,0,0,1-1.548-.161c.049,1.051.935,1.495,1.946,1.4.18-1.066,1.656-2.923,3.06-4.661s4.176-4.423,4.018-4.885S168.168,135.062,167.768,135.86Z" transform="translate(-157.877 -128.813)" fill="#f28f8f"/>
              <path id="Trazado_1424" data-name="Trazado 1424" d="M172.56,136.544c.452-.52-.361-1.262-.688-.542s.075.773-.971,1.994-3.094,3.38-3.637,4.148a3.6,3.6,0,0,0-.754,3.654h0a11.671,11.671,0,0,0,1.308-1.27c-.642-.529-.6-1.956.568-3.261S172.107,137.065,172.56,136.544Z" transform="translate(-159.614 -128.947)" fill="#f28f8f"/>
              <path id="Trazado_1425" data-name="Trazado 1425" d="M195.453,132.228h0c-.482.739-2.874.7-4.454.154s-5.056-1.493-7.041-1.112-3.991,1.691-6.088,4.372a37.775,37.775,0,0,1-6.717,6.926c-1.76,1.161-2.464.954-2.465.953a3.186,3.186,0,0,0,3.2-.489c2.171-1.4,5.826-5.183,8.455-7.333a9.754,9.754,0,0,1,6.549-2.637c2.351-.158,4.66,1.072,7.076.364C194.945,133.139,195.389,132.712,195.453,132.228Z" transform="translate(-160.23 -127.787)" fill="#f28f8f"/>
            </g>
            <g id="Grupo_9994" data-name="Grupo 9994" transform="translate(27.658)">
              <path id="Trazado_1426" data-name="Trazado 1426" d="M160.582,124.754a24.752,24.752,0,0,1,5.516-.537c3.4-.332,6.6-.643,7.185-1.508s2.672-2.95,2.715-3.9a2.131,2.131,0,0,0-.622-1.554,5.313,5.313,0,0,0,1.224-1.935,3.53,3.53,0,0,0-.442-2.461,2.983,2.983,0,0,0,.924-1.487,2.374,2.374,0,0,0-1.652-2.82,2.854,2.854,0,0,0,.988-2.572c-.121-1.241-1.711-2.133-3.789-1.665s-6.206,1.666-7.142,1.049-.48-3.933-.6-6.044-1.485-5.636-3.48-5.275c-1.061.192-.5,3.451-1.015,6.357s-3.285,6.221-4.793,9.818c-.709,1.694-2.62,3.956-4.891,6.3.4,4.075,4.152,8.321,6.986,9.164A14.116,14.116,0,0,1,160.582,124.754Z" transform="translate(-150.712 -94.022)" fill="#ffa8a7"/>
              <path id="Trazado_1427" data-name="Trazado 1427" d="M169.824,108.155c-.573-.377-.624-1.766-.6-3.269h0c-.4,1.438-2.207,3.145-1.4,3.811s3.653-.308,5.485-.729h0C171.766,108.291,170.329,108.488,169.824,108.155Z" transform="translate(-155.05 -96.81)" fill="#f28f8f"/>
              <g id="Grupo_9993" data-name="Grupo 9993" transform="translate(20.494 14.533)">
                <path id="Trazado_1428" data-name="Trazado 1428" d="M183.363,114.047a2.45,2.45,0,0,0-.859-.474s-2.235,1.113-4.223,1.934A12.955,12.955,0,0,0,183.363,114.047Z" transform="translate(-178.281 -113.573)" fill="#f28f8f"/>
                <path id="Trazado_1429" data-name="Trazado 1429" d="M183.72,119.367c-1.114.8-3.538,2.069-3.538,2.069s2.463-.606,3.927-1.147A4.527,4.527,0,0,0,183.72,119.367Z" transform="translate(-178.769 -115.06)" fill="#f28f8f"/>
                <path id="Trazado_1430" data-name="Trazado 1430" d="M182.691,125.28h0a37.346,37.346,0,0,1-3.471,2.475,24.177,24.177,0,0,0,3.976-1.662A2.244,2.244,0,0,0,182.691,125.28Z" transform="translate(-178.522 -116.577)" fill="#f28f8f"/>
              </g>
              <path id="Trazado_1431" data-name="Trazado 1431" d="M177.8,129.021c-1.037,1.323-2.409,2.668-6.185,3.086-3.215.357-6.548.369-9.734,1.614a14.732,14.732,0,0,0-1.851.927,1.041,1.041,0,0,0,.1.03,31.285,31.285,0,0,1,8.355-1.48c3.4-.332,6.6-.643,7.185-1.508.394-.578,1.456-1.7,2.129-2.669Z" transform="translate(-153.104 -103.004)" fill="#f28f8f"/>
              <path id="Trazado_1432" data-name="Trazado 1432" d="M171.409,132.775l3.028-.425a20.723,20.723,0,0,0,2.976-.581,1.927,1.927,0,0,0,1.2-.742c.32-.407.652-.792.991-1.172s.668-.767.975-1.169a3.274,3.274,0,0,0,.73-1.314,3.331,3.331,0,0,1-.621,1.392c-.288.424-.6.827-.923,1.227s-.653.785-.952,1.187a2.371,2.371,0,0,1-.251.316,1.632,1.632,0,0,1-.338.238,3.793,3.793,0,0,1-.731.3,18.163,18.163,0,0,1-3.032.526C173.447,132.663,172.428,132.726,171.409,132.775Z" transform="translate(-156.023 -102.58)" fill="#b16668"/>
              <path id="Trazado_1433" data-name="Trazado 1433" d="M175.881,116.047a6.213,6.213,0,0,0-.629.594,2.892,2.892,0,0,1-.8.523,2.491,2.491,0,0,1-.528.151c-.145.023-.817.059-.911.074a.758.758,0,0,0-.343.126.071.071,0,0,0,.013.1,1.509,1.509,0,0,0,.605.14c.221.016.432.09.652.084a1.934,1.934,0,0,0,.92-.246,2.172,2.172,0,0,0,.64-.671,2.1,2.1,0,0,0,.382-.866S175.886,116.043,175.881,116.047Z" transform="translate(-156.344 -99.674)" fill="#f28f8f"/>
              <path id="Trazado_1434" data-name="Trazado 1434" d="M177.677,121.911a6.281,6.281,0,0,0-.628.593,2.87,2.87,0,0,1-.8.523,2.418,2.418,0,0,1-.528.151c-.146.023-.817.059-.911.074a.75.75,0,0,0-.343.127.071.071,0,0,0,.014.1,1.493,1.493,0,0,0,.6.14,6.559,6.559,0,0,0,.653.084,1.914,1.914,0,0,0,.92-.246,2.172,2.172,0,0,0,.641-.67,2.117,2.117,0,0,0,.381-.867S177.683,121.907,177.677,121.911Z" transform="translate(-156.805 -101.179)" fill="#f28f8f"/>
              <path id="Trazado_1435" data-name="Trazado 1435" d="M178.17,126.973a6.2,6.2,0,0,0-.628.593,2.887,2.887,0,0,1-.8.523,2.461,2.461,0,0,1-.528.151c-.145.023-.817.059-.911.074a.751.751,0,0,0-.343.126.071.071,0,0,0,.013.1,1.494,1.494,0,0,0,.6.141c.222.016.432.09.653.084a1.931,1.931,0,0,0,.92-.246,2.174,2.174,0,0,0,.641-.671,2.11,2.11,0,0,0,.381-.866S178.176,126.968,178.17,126.973Z" transform="translate(-156.932 -102.478)" fill="#f28f8f"/>
            </g>
          </g>
        </g>
      </g>
    </g>
  </g>
</svg>
